<svg width="42" height="42" viewBox="0 0 42 42" fill="none" xmlns="http://www.w3.org/2000/svg">
<g clip-path="url(#clip0_1_1204)">
<path d="M24.311 42C20.881 42 17.5963 41.986 16.4518 41.9545C15.9588 41.939 15.4692 41.868 14.9923 41.7428C13.77 41.4042 12.6831 40.6946 11.8814 39.7119C11.0797 38.7292 10.6028 37.5218 10.5165 36.2565C10.4303 34.9912 10.739 33.7303 11.3999 32.6479C12.0609 31.5655 13.0415 30.715 14.2065 30.2137C13.8933 28.6316 13.9273 27.0004 14.3063 25.4328C14.8372 23.2861 16.0323 21.3619 17.7212 19.9344C19.4101 18.507 21.5065 17.6492 23.7116 17.4833C25.9167 17.3175 28.1179 17.852 30.0013 19.0108C31.8847 20.1696 33.3542 21.8934 34.2003 23.9365C34.4383 24.507 35.5355 24.7572 35.5355 24.7572C37.7337 25.3563 39.6127 26.7869 40.775 28.7465C41.9374 30.7061 42.292 33.041 41.7638 35.2572C41.3969 36.8336 40.5959 38.2756 39.4515 39.42C38.3071 40.5644 36.8651 41.3654 35.2888 41.7323C34.6775 41.8716 34.0536 41.9484 33.4268 41.9615C31.9008 41.9825 28.0228 42 24.311 42ZM15.7273 17.0713C17.4589 15.662 19.5049 14.6914 21.6917 14.2417C23.8786 13.792 26.1416 13.8766 28.2888 14.4883C28.7266 14.6057 29.1836 14.6336 29.6325 14.5705C30.0814 14.5073 30.513 14.3544 30.9015 14.1208L35.1838 11.62C35.3754 11.493 35.5402 11.3295 35.6687 11.1389C35.7972 10.9482 35.8868 10.7341 35.9326 10.5088C35.9783 10.2835 35.9792 10.0514 35.9353 9.82575C35.8913 9.60009 35.8034 9.38529 35.6764 9.19362C35.5494 9.00196 35.3859 8.83718 35.1953 8.7087C35.0046 8.58021 34.7905 8.49054 34.5652 8.44479C34.3399 8.39905 34.1078 8.39813 33.8821 8.44209C33.6565 8.48605 33.4417 8.57403 33.25 8.701L28.6283 11.7635C27.6588 12.2552 27.153 10.99 26.4058 10.5087L29.631 5.00325C29.7472 4.80481 29.8231 4.58542 29.8545 4.35763C29.8859 4.12983 29.8721 3.89809 29.8139 3.67562C29.7558 3.45316 29.6543 3.24433 29.5154 3.06106C29.3766 2.87779 29.2029 2.72367 29.0045 2.6075C28.8061 2.49133 28.5867 2.41538 28.3589 2.384C28.1311 2.35261 27.8993 2.3664 27.6769 2.42457C27.4544 2.48275 27.2456 2.58417 27.0623 2.72306C26.879 2.86194 26.7249 3.03556 26.6088 3.234L23.422 8.68525C22.6439 8.36603 21.831 8.13931 21 8.00975V1.75C21 1.28587 20.8156 0.840752 20.4874 0.512563C20.1593 0.184374 19.7141 0 19.25 0C18.7859 0 18.3408 0.184374 18.0126 0.512563C17.6844 0.840752 17.5 1.28587 17.5 1.75V8.015C16.7062 8.14412 15.9284 8.35707 15.1795 8.65025L11.9543 3.2095C11.837 3.01175 11.682 2.83901 11.4981 2.70116C11.3141 2.56332 11.1048 2.46305 10.8821 2.40609C10.4323 2.29106 9.95526 2.35942 9.55588 2.59613C9.15649 2.83283 8.8675 3.2185 8.75247 3.66828C8.63744 4.11806 8.7058 4.59512 8.9425 4.9945L12.152 10.4073C11.5444 10.8956 10.9869 11.4431 10.4878 12.0417L5.06275 8.86725C4.86426 8.74214 4.64264 8.65823 4.41106 8.6205C4.17949 8.58276 3.94269 8.59198 3.71475 8.64761C3.48681 8.70323 3.27238 8.80413 3.08422 8.94429C2.89605 9.08445 2.738 9.26102 2.61945 9.4635C2.5009 9.66597 2.42427 9.89022 2.39413 10.1229C2.36399 10.3556 2.38095 10.592 2.44399 10.818C2.50704 11.044 2.61489 11.255 2.76113 11.4385C2.90737 11.6219 3.08901 11.7741 3.29525 11.886L8.6835 15.05C8.36263 15.8373 8.13532 16.6596 8.00625 17.5H1.75C1.28587 17.5 0.840752 17.6844 0.512563 18.0126C0.184375 18.3408 0 18.7859 0 19.25C0 19.7141 0.184375 20.1592 0.512563 20.4874C0.840752 20.8156 1.28587 21 1.75 21H8.008C8.08827 21.5221 8.20522 22.0379 8.358 22.5435C8.38899 22.7371 8.35409 22.9354 8.25889 23.1068C8.1637 23.2781 8.01372 23.4126 7.833 23.4885L3.094 26.3095C2.69508 26.5469 2.40681 26.9331 2.2926 27.383C2.17839 27.8329 2.2476 28.3098 2.485 28.7088C2.7224 29.1077 3.10855 29.3959 3.5585 29.5102C4.00844 29.6244 4.48533 29.5552 4.88425 29.3178L9.41675 26.67C9.77614 26.4662 10.0903 26.1913 10.34 25.8622C10.5897 25.533 10.7698 25.1565 10.8693 24.7555C11.5863 21.724 13.2963 19.0192 15.7273 17.0713Z" fill="#0E5587"/>
</g>
<defs>
<clipPath id="clip0_1_1204">
<rect width="42" height="42" fill="white"/>
</clipPath>
</defs>
</svg>
