<svg width="42" height="42" viewBox="0 0 42 42" fill="none" xmlns="http://www.w3.org/2000/svg">
<g clip-path="url(#clip0_1_1218)">
<path d="M41.902 22.1708L36.5978 7.01578C35.8628 4.91228 33.8695 3.49828 31.6417 3.49828H22.75V1.75003C22.7395 -0.538971 19.2588 -0.537221 19.25 1.75003V3.50003H10.3583C8.1305 3.50003 6.13725 4.91403 5.40225 7.01578L0.098 22.1708C0.03325 22.3563 0 23.2768 0 23.2768C0 27.6623 3.27425 31.269 7.455 31.4878C9.62675 31.6085 11.7145 30.8385 13.2965 29.337C14.8575 27.8565 15.75 25.774 15.75 23.625C15.75 23.625 15.7133 22.344 15.6433 22.1515L10.1395 7.01403C10.2113 7.00528 10.2847 7.00003 10.3583 7.00003H19.25V38.5H8.75C6.461 38.5105 6.46275 41.9913 8.75 42H33.25C35.539 41.9895 35.5373 38.5088 33.25 38.5H22.75V7.00003H31.6417C31.7152 7.00003 31.7887 7.00353 31.8605 7.01403L26.355 22.1515C26.285 22.3423 26.2482 23.625 26.2482 23.625C26.2482 25.7758 27.1425 27.8565 28.7017 29.337C33.6175 34.0638 42.0858 30.653 41.9983 23.2785C41.9983 23.2785 41.965 22.358 41.9003 22.1725L41.902 22.1708ZM11.501 21H4.21575L7.78925 10.7923L11.501 21ZM34.2108 10.7923L37.7842 21H30.499L34.2108 10.7923Z" fill="#0E5587"/>
</g>
<defs>
<clipPath id="clip0_1_1218">
<rect width="42" height="42" fill="white"/>
</clipPath>
</defs>
</svg>
